<svg width="40" height="40" viewBox="0 0 40 40" fill="none" xmlns="http://www.w3.org/2000/svg">
<path d="M36.0625 9.59375L20.9688 0.90625C20.7188 0.75 20.375 0.6875 20 0.6875C19.625 0.6875 19.2812 0.78125 19.0312 0.90625L4.03125 9.625C3.5 9.9375 3.125 10.7188 3.125 11.3125V28.7188C3.125 29.0625 3.1875 29.4688 3.4375 29.8125L36.8125 10.4375C36.625 10.0625 36.3438 9.78125 36.0625 9.59375Z" fill="#D26383"/>
<path d="M3.34375 29.7813C3.5 30.0313 3.71875 30.25 3.9375 30.375L19 39.0938C19.25 39.25 19.5938 39.3125 19.9688 39.3125C20.3438 39.3125 20.6875 39.2188 20.9375 39.0938L35.9375 30.375C36.4688 30.0625 36.8438 29.2813 36.8438 28.6875V11.2812C36.8438 11 36.8125 10.6875 36.6562 10.4062L3.34375 29.7813Z" fill="#9C033A"/>
<path d="M26.6562 23.7812C25.3438 26.0938 22.8438 27.6562 20 27.6562C15.7812 27.6562 12.3438 24.2188 12.3438 20C12.3438 15.7812 15.7812 12.3438 20 12.3438C22.8438 12.3438 25.3438 13.9062 26.6562 16.25L30.7188 13.9062C28.5938 10.1875 24.5938 7.65625 20 7.65625C13.1875 7.65625 7.65625 13.1875 7.65625 20C7.65625 26.8125 13.1875 32.3438 20 32.3438C24.5625 32.3438 28.5625 29.8438 30.6875 26.1562L26.6562 23.7812Z" fill="white"/>
<path d="M25.6562 19.3125H27.2813V17.6562H28.6562V19.3125H30.3125V20.6875H28.6562V22.3125H27.2813V20.6875H25.6562V19.3125ZM31.4375 19.3125H33.0625V17.6562H34.4375V19.3125H36.0938V20.6875H34.4375V22.3125H33.0625V20.6875H31.4375V19.3125Z" fill="white"/>
</svg>
