<svg width="40" height="40" viewBox="0 0 40 40" fill="none" xmlns="http://www.w3.org/2000/svg">
<path d="M37.8896 0H2.1001L5.25799 35.7895L19.9948 40L34.7317 35.7895L37.8896 0Z" fill="#0277BD"/>
<path d="M19.9951 3.1579V36.7347L31.7846 33.3684L34.4162 3.1579H19.9951Z" fill="#039BE5"/>
<path d="M29.5762 8.42108H19.9951V12.6316H25.1509L24.8393 16.8421H19.9951V21.0527H24.6246L24.313 25.7895L19.9951 27.2611V31.6863L28.3088 28.9474L29.0499 16.8421L29.5762 8.42108Z" fill="white"/>
<path d="M19.9947 8.42108V12.6316H10.6284L10.3115 8.42108H19.9947ZM15.1505 16.8421L15.3652 21.0527H19.9947V16.8421H15.1505ZM15.5747 23.1579H11.3642L11.6799 28.9474L19.9947 31.6863V27.2611L15.6768 25.7895L15.5747 23.1579Z" fill="#EEEEEE"/>
</svg>
