<svg width="40" height="40" viewBox="0 0 40 40" fill="none" xmlns="http://www.w3.org/2000/svg">
<g clip-path="url(#clip0)">
<g clip-path="url(#clip1)">
<path d="M19.9705 0C8.96894 0 0.0478516 9.16892 0.0478516 20.4797C0.0478516 29.5283 5.75629 37.2049 13.6722 39.913C14.6679 40.1025 15.0335 39.4687 15.0335 38.9277C15.0335 38.4395 15.0149 36.826 15.0064 35.1148C9.46379 36.3537 8.29426 32.6985 8.29426 32.6985C7.38801 30.3313 6.08223 29.702 6.08223 29.702C4.27473 28.4308 6.21848 28.4568 6.21848 28.4568C8.2191 28.6014 9.27254 30.5674 9.27254 30.5674C11.0494 33.6983 13.9332 32.7931 15.07 32.2699C15.2488 30.9461 15.7652 30.0428 16.3349 29.5314C11.9099 29.0134 7.25801 27.2573 7.25801 19.4101C7.25801 17.1743 8.03629 15.3473 9.31082 13.9131C9.10394 13.3972 8.42207 11.3143 9.50379 8.49336C9.50379 8.49336 11.1768 7.94292 14.9839 10.5926C16.573 10.1387 18.2774 9.91131 19.9705 9.90359C21.6636 9.91131 23.3693 10.1387 24.9614 10.5926C28.7641 7.94292 30.4347 8.49336 30.4347 8.49336C31.5191 11.3143 30.8369 13.3972 30.63 13.9131C31.9074 15.3473 32.6804 17.1742 32.6804 19.4101C32.6804 27.276 28.0197 29.0081 23.5835 29.515C24.298 30.1506 24.9347 31.397 24.9347 33.3075C24.9347 36.0477 24.9116 38.2531 24.9116 38.9277C24.9116 39.4727 25.2702 40.1113 26.2802 39.9102C34.1918 37.1992 39.893 29.5253 39.893 20.4797C39.893 9.16892 30.9732 0 19.9705 0Z" fill="#161614"/>
<path d="M7.50967 29.1738C7.46592 29.2755 7.30999 29.306 7.16827 29.2363C7.02374 29.1695 6.94249 29.0307 6.98936 28.9286C7.03233 28.8238 7.18827 28.7946 7.33249 28.8649C7.47733 28.9316 7.55983 29.0717 7.50967 29.1738ZM8.48966 30.0726C8.39467 30.1632 8.20889 30.1211 8.08279 29.978C7.95248 29.8352 7.92811 29.6444 8.02451 29.5524C8.12248 29.462 8.30264 29.5042 8.43326 29.6472C8.56357 29.7916 8.58888 29.9812 8.48951 30.0728L8.48966 30.0726ZM9.162 31.2227C9.03982 31.3099 8.84013 31.2281 8.71685 31.046C8.59482 30.864 8.59482 30.6456 8.71951 30.558C8.84326 30.4705 9.03982 30.5492 9.16482 30.7299C9.28669 30.9151 9.28669 31.1335 9.16185 31.2228L9.162 31.2227ZM10.2989 32.5547C10.1897 32.6784 9.95715 32.6453 9.78684 32.4763C9.61278 32.3112 9.56419 32.0768 9.67372 31.953C9.78419 31.829 10.0181 31.8639 10.1897 32.0314C10.3626 32.1962 10.4154 32.4323 10.299 32.5547H10.2989ZM11.7682 33.0044C11.7203 33.1647 11.4962 33.2376 11.2706 33.1695C11.0453 33.0993 10.8978 32.9114 10.9432 32.7494C10.9901 32.5879 11.2151 32.512 11.4425 32.5849C11.6675 32.6547 11.8153 32.8412 11.7684 33.0044H11.7682ZM13.4407 33.1951C13.4463 33.364 13.2549 33.5041 13.0181 33.5071C12.7798 33.5125 12.5871 33.3758 12.5846 33.2097C12.5846 33.0391 12.7717 32.9003 13.0098 32.8963C13.2467 32.8915 13.4407 33.0272 13.4407 33.1951ZM15.0835 33.1303C15.112 33.2951 14.9473 33.4644 14.7121 33.5094C14.4809 33.5528 14.2668 33.4511 14.2373 33.2877C14.2085 33.1188 14.3763 32.9496 14.6071 32.9058C14.8427 32.8637 15.0535 32.9628 15.0835 33.1303Z" fill="#161614"/>
</g>
</g>
<defs>
<clipPath id="clip0">
<rect width="40" height="40" fill="white"/>
</clipPath>
<clipPath id="clip1">
<rect width="40" height="40" fill="white" transform="translate(0.0478516)"/>
</clipPath>
</defs>
</svg>
