<svg width="40" height="40" viewBox="0 0 40 40" fill="none" xmlns="http://www.w3.org/2000/svg">
<path d="M5.54688 35.9375L2.34375 0H37.5781L34.375 35.9375L19.9219 40" fill="#E34F26"/>
<path d="M20 36.875L31.6406 33.6719L34.375 2.89062H20" fill="#EF652A"/>
<path d="M20 16.25H14.1406L13.75 11.7188H20V7.34375H8.90625L10.0781 20.7031H20V16.25ZM19.9219 27.7344L15 26.4062L14.6875 22.8906H10.3125L10.8594 29.8438L19.9219 32.3438V27.7344Z" fill="#EBEBEB"/>
<path d="M19.9219 16.25V20.7031H25.3906L24.8438 26.4062L19.9219 27.7344V32.3438L28.9844 29.8438L30.2344 16.25H19.9219ZM19.9219 7.34375V11.7188H30.625L31.0156 7.34375H19.9219Z" fill="white"/>
</svg>
