<svg width="40" height="40" viewBox="0 0 40 40" fill="none" xmlns="http://www.w3.org/2000/svg">
<path d="M0 0H40V40H0V0Z" fill="#F7DF1E"/>
<path d="M10.5177 33.4269L13.5787 31.5744C14.1693 32.6214 14.7065 33.5074 15.9951 33.5074C17.2302 33.5074 18.0091 33.0242 18.0091 31.1449V18.3639H21.768V31.198C21.768 35.0913 19.4859 36.8635 16.1562 36.8635C13.1491 36.8635 11.4037 35.3061 10.5176 33.4266L10.5177 33.4269ZM23.8098 33.0241L26.8704 31.2521C27.6762 32.5678 28.7234 33.5344 30.5759 33.5344C32.1335 33.5344 33.1266 32.7556 33.1266 31.6816C33.1266 30.3928 32.1063 29.9363 30.3879 29.1847L29.4484 28.7816C26.7363 27.6274 24.9374 26.1774 24.9374 23.1164C24.9374 20.2971 27.0854 18.1489 30.4418 18.1489C32.8315 18.1489 34.5499 18.9814 35.7849 21.1563L32.858 23.036C32.2135 21.8814 31.5157 21.425 30.4416 21.425C29.3407 21.425 28.6426 22.1231 28.6426 23.036C28.6426 24.1636 29.3407 24.6203 30.9516 25.3185L31.8913 25.7211C35.0866 27.0906 36.8855 28.4867 36.8855 31.628C36.8855 35.0114 34.2274 36.8639 30.6563 36.8639C27.1659 36.8639 24.9104 35.1992 23.8096 33.0242" fill="black"/>
</svg>
