<svg width="40" height="40" viewBox="0 0 40 40" fill="none" xmlns="http://www.w3.org/2000/svg">
<path fill-rule="evenodd" clip-rule="evenodd" d="M27.512 13.3787C28.0136 14.8297 28.3748 16.3109 28.4936 17.8462C28.6411 19.7509 28.5736 21.6422 28.172 23.5156C28.1611 23.5672 28.1379 23.6156 28.1207 23.6656C27.9948 23.6659 27.8664 23.6503 27.7432 23.6693C26.7029 23.8328 25.6636 24.0022 24.6242 24.1706C23.5498 24.3447 22.4739 24.5118 21.4014 24.6978C21.0214 24.7634 20.5511 24.685 20.3976 25.2106C20.3932 25.225 20.3495 25.2275 20.3242 25.2356L20.3761 22.0947C20.3582 19.5684 20.3407 17.0422 20.3232 14.5159L20.8239 14.43C21.6426 14.2959 22.4614 14.16 23.2807 14.0297C24.2586 13.8743 25.2373 13.7234 26.2157 13.5718C26.6473 13.5047 27.0795 13.4431 27.512 13.3787Z" fill="#439934"/>
<path fill-rule="evenodd" clip-rule="evenodd" d="M19.2904 34.3919C18.7622 33.9378 18.2157 33.5038 17.7094 33.0263C14.9854 30.4569 12.9929 27.4328 12.0116 23.7869C11.7413 22.7834 11.561 21.7638 11.5032 20.7269C11.4626 20.0013 11.4038 19.2691 11.455 18.5472C11.5916 16.6272 11.8691 14.7256 12.4322 12.8763L12.4632 12.8331C12.5179 12.9059 12.5966 12.9703 12.6244 13.0525C13.1741 14.6713 13.7197 16.2913 14.2626 17.9122C15.9682 23.0059 17.6716 28.1009 19.38 33.1934C19.4135 33.2928 19.5 33.3744 19.5622 33.4641L19.2904 34.3919Z" fill="#45A538"/>
<path fill-rule="evenodd" clip-rule="evenodd" d="M27.5121 13.3788C27.0796 13.4432 26.6471 13.5047 26.2155 13.5713C25.2371 13.7229 24.2583 13.8738 23.2805 14.0291C22.4611 14.1594 21.6424 14.2954 20.8236 14.4294L20.323 14.5154L20.3192 14.1888C20.3027 13.9204 20.2742 13.6522 20.2711 13.3838C20.2496 11.6719 20.2361 9.96004 20.2149 8.24817C20.2017 7.17661 20.1821 6.10536 20.1602 5.03411C20.1467 4.36848 20.1324 3.70254 20.1024 3.03786C20.0861 2.68067 20.0286 2.32536 20.0052 1.96817C19.9921 1.76286 20.0102 1.55598 20.0142 1.34973C20.2696 1.84442 20.5192 2.34286 20.7817 2.83379C21.1964 3.61004 21.8571 4.18192 22.4517 4.80598C24.8027 7.27223 26.4717 10.1397 27.5121 13.3788Z" fill="#46A037"/>
<path fill-rule="evenodd" clip-rule="evenodd" d="M20.3239 25.2353C20.3493 25.2272 20.3933 25.2247 20.3974 25.2103C20.5508 24.6847 21.0211 24.7631 21.4011 24.6975C22.4736 24.5119 23.5496 24.3444 24.6239 24.1703C25.6633 24.0019 26.7027 23.8325 27.743 23.669C27.8661 23.6497 27.9946 23.6656 28.1205 23.6653C27.9261 24.359 27.773 25.0678 27.5264 25.7425C27.2464 26.5078 26.9077 27.2547 26.548 27.9869C26.0105 29.0815 25.3408 30.1025 24.5627 31.0378C23.963 31.759 23.2946 32.4256 22.6246 33.084C22.2543 33.4481 21.8177 33.7447 21.4114 34.0719L21.3061 34L20.9268 33.6756L20.5343 32.8153C20.2639 31.8081 20.1221 30.7828 20.0986 29.7409L20.1058 29.5656L20.1593 28.8075C20.1771 28.5487 20.2008 28.2903 20.2118 28.0309C20.2521 27.099 20.2871 26.1672 20.3239 25.2353Z" fill="#409433"/>
<path fill-rule="evenodd" clip-rule="evenodd" d="M20.324 25.2353C20.2871 26.1672 20.2521 27.0991 20.2124 28.0313C20.2015 28.2906 20.1777 28.5491 20.1599 28.8078L19.9208 28.8981C19.3899 27.335 18.8587 25.7884 18.339 24.2378C17.4796 21.6725 16.6305 19.1031 15.7724 16.5372C15.0796 14.4659 14.3812 12.3969 13.6787 10.3288C13.6458 10.2319 13.5515 10.1563 13.4858 10.0706L15.0158 7.25751C15.0683 7.34876 15.1377 7.43407 15.1708 7.53219C15.8787 9.62688 16.5852 11.7219 17.2858 13.8191C18.1971 16.5472 19.1027 19.2775 20.0133 22.0059C20.0496 22.115 20.1096 22.2156 20.1668 22.3378L20.3762 22.0941C20.3587 23.1413 20.3412 24.1881 20.324 25.2353Z" fill="#4FAA41"/>
<path fill-rule="evenodd" clip-rule="evenodd" d="M13.4859 10.0709C13.5515 10.1565 13.6456 10.2322 13.6787 10.329C14.3812 12.3972 15.0796 14.4662 15.7724 16.5375C16.6306 19.1034 17.4796 21.6728 18.339 24.2381C18.8584 25.7884 19.3896 27.3353 19.9209 28.8984L20.1599 28.8081L20.1065 29.5662L20.0581 29.7409C19.9749 30.5709 19.9049 31.4028 19.8037 32.2309C19.7528 32.6459 19.6446 33.0534 19.5624 33.4644C19.5006 33.3747 19.4137 33.2931 19.3803 33.1937C17.6718 28.1009 15.9684 23.0062 14.2628 17.9125C13.7199 16.2915 13.1743 14.6715 12.6246 13.0528C12.5968 12.9706 12.5184 12.9062 12.4634 12.8334C12.804 11.9125 13.1449 10.9915 13.4859 10.0709Z" fill="#4AA73C"/>
<path fill-rule="evenodd" clip-rule="evenodd" d="M20.3759 22.0944L20.1666 22.3381C20.1094 22.2159 20.0494 22.115 20.0131 22.0062C19.1028 19.2778 18.1969 16.5475 17.2856 13.8194C16.585 11.7222 15.8784 9.62717 15.1706 7.53249C15.1378 7.43436 15.0684 7.34874 15.0156 7.2578L16.9078 4.76874C16.9675 4.84843 17.0525 4.91936 17.0834 5.00905C17.6088 6.54686 18.1294 8.08655 18.6469 9.62717C19.1303 11.0659 19.6066 12.5069 20.0956 13.9437C20.1284 14.04 20.2425 14.1081 20.3188 14.1894L20.3225 14.5159C20.3406 17.0415 20.3584 19.5681 20.3759 22.0944Z" fill="#57AE47"/>
<path fill-rule="evenodd" clip-rule="evenodd" d="M20.3191 14.1887C20.2429 14.1075 20.1288 14.0393 20.096 13.9431C19.607 12.5062 19.1307 11.0653 18.6473 9.62654C18.1298 8.08591 17.6091 6.54654 17.0838 5.00841C17.0529 4.91872 16.9679 4.84779 16.9082 4.7681C17.5235 4.1656 18.1198 3.54154 18.7598 2.96685C19.3288 2.45622 19.7863 1.90872 19.8073 1.10185C19.8082 1.06841 19.8257 1.03497 19.8526 0.941223L20.0148 1.34935C20.0107 1.55591 19.9923 1.76247 20.0057 1.96779C20.0291 2.32497 20.0866 2.68029 20.1029 3.03747C20.1329 3.70216 20.1473 4.3681 20.1607 5.03372C20.1823 6.10497 20.202 7.17622 20.2154 8.24779C20.2363 9.95966 20.2501 11.6715 20.2716 13.3834C20.2741 13.6525 20.3023 13.9203 20.3191 14.1887Z" fill="#60B24F"/>
<path fill-rule="evenodd" clip-rule="evenodd" d="M19.5619 33.464C19.6441 33.0531 19.7522 32.6453 19.8032 32.2306C19.9047 31.4028 19.9744 30.5706 20.0575 29.7406L20.0782 29.7375L20.0988 29.7409C20.1222 30.7828 20.2641 31.8081 20.5344 32.8153C20.4794 32.8878 20.4016 32.9525 20.3725 33.0344C20.1454 33.675 19.9313 34.3206 19.7029 34.9612C19.6716 35.0487 19.5847 35.1169 19.5235 35.1937L19.29 34.3919L19.5619 33.464Z" fill="#A9AA88"/>
<path fill-rule="evenodd" clip-rule="evenodd" d="M19.5239 35.194C19.5852 35.1172 19.6724 35.049 19.7033 34.9615C19.9317 34.3209 20.1461 33.6756 20.373 33.0347C20.402 32.9528 20.4795 32.8881 20.5349 32.8156L20.927 33.6762C20.8495 33.7862 20.7427 33.8853 20.6995 34.0078L19.9483 36.2137C19.9174 36.3022 19.8117 36.3647 19.7411 36.4394L19.5239 35.194Z" fill="#B6B598"/>
<path fill-rule="evenodd" clip-rule="evenodd" d="M19.7412 36.4391C19.8121 36.3647 19.9175 36.3019 19.9484 36.2135L20.6996 34.0075C20.7425 33.8853 20.8497 33.786 20.9272 33.676L21.3068 34C21.1234 34.1813 21.0215 34.3907 21.0828 34.6553L20.9675 35.0328C20.915 35.0975 20.839 35.1538 20.8131 35.2278C20.5509 35.9788 20.3006 36.7338 20.0365 37.4847C20.0031 37.58 19.9103 37.6547 19.8446 37.7385C19.8106 37.305 19.7759 36.8725 19.7412 36.4391Z" fill="#C2C1A7"/>
<path fill-rule="evenodd" clip-rule="evenodd" d="M19.8449 37.7385C19.9102 37.6544 20.003 37.5797 20.0367 37.4847C20.3008 36.7341 20.5511 35.9791 20.8133 35.2278C20.8392 35.1541 20.9149 35.0975 20.9677 35.0328L20.8086 36.7656C20.7661 36.8147 20.7045 36.8575 20.6842 36.9147C20.5045 37.4191 20.3352 37.9272 20.1549 38.4316C20.1177 38.5356 20.0464 38.6275 19.9908 38.7247C19.9414 38.66 19.853 38.5975 19.8489 38.53C19.833 38.2672 19.8439 38.0025 19.8449 37.7385Z" fill="#CECDB7"/>
<path fill-rule="evenodd" clip-rule="evenodd" d="M19.9902 38.7247C20.0459 38.6272 20.1171 38.5353 20.1543 38.4316C20.3349 37.9275 20.504 37.4194 20.6837 36.9147C20.704 36.8575 20.7659 36.815 20.808 36.7656L20.8118 37.9031L20.4312 38.8794L19.9902 38.7247Z" fill="#DBDAC7"/>
<path fill-rule="evenodd" clip-rule="evenodd" d="M20.4312 38.8797L20.8118 37.9034L20.8902 39.0584L20.4312 38.8797Z" fill="#EBE9DC"/>
<path fill-rule="evenodd" clip-rule="evenodd" d="M21.0828 34.6556C21.0216 34.3909 21.1231 34.1812 21.3069 34.0003L21.4122 34.0722L21.0828 34.6556Z" fill="#CECDB7"/>
<path fill-rule="evenodd" clip-rule="evenodd" d="M20.0989 29.7412L20.0782 29.7378L20.0576 29.7409L20.1061 29.5662L20.0989 29.7412Z" fill="#4FAA41"/>
</svg>
