<svg width="40" height="40" viewBox="0 0 40 40" fill="none" xmlns="http://www.w3.org/2000/svg">
<g clip-path="url(#clip0)">
<g clip-path="url(#clip1)">
<path d="M18.5253 0.507811C19.5128 -0.0574381 20.799 -0.0599912 21.7857 0.507811C26.7495 3.31264 31.7149 6.11307 36.6779 8.9196C37.6114 9.44541 38.2358 10.4843 38.2263 11.5599V28.4348C38.2332 29.555 37.5471 30.6186 36.5623 31.1325C31.6148 33.9219 26.6698 36.7147 21.7232 39.504C20.7152 40.0804 19.4032 40.036 18.4267 39.4124C16.9434 38.5526 15.4576 37.697 13.9742 36.8379C13.6711 36.6572 13.3294 36.5134 13.1154 36.2195C13.3046 35.9645 13.6429 35.9327 13.9178 35.8213C14.5369 35.6245 15.1056 35.3084 15.6744 35.0018C15.8182 34.9033 15.9938 34.9411 16.1317 35.0291C17.4 35.7564 18.6572 36.5048 19.9298 37.225C20.2013 37.3818 20.4762 37.1737 20.7083 37.0443C25.5633 34.3003 30.4243 31.5667 35.2785 28.8219C35.4583 28.7354 35.5578 28.5445 35.5432 28.3474C35.5466 22.7808 35.544 17.2131 35.5449 11.6464C35.5654 11.4229 35.4361 11.2173 35.2339 11.1258C30.3036 8.34924 25.3758 5.56839 20.4463 2.79108C20.3609 2.73236 20.2597 2.70086 20.1561 2.70071C20.0524 2.70055 19.9512 2.73176 19.8656 2.79023C14.9361 5.56839 10.0091 8.3518 5.07961 11.1283C4.8782 11.2199 4.74302 11.422 4.76699 11.6464C4.76784 17.2131 4.76699 22.7808 4.76699 28.3483C4.75844 28.4444 4.77956 28.5409 4.82749 28.6246C4.87542 28.7084 4.94787 28.7755 5.03507 28.8168C6.35054 29.5628 7.6677 30.3035 8.98401 31.0469C9.72557 31.446 10.6361 31.6832 11.4531 31.3774C12.1741 31.1188 12.6795 30.383 12.6657 29.6175C12.6725 24.0833 12.6623 18.5483 12.6708 13.0149C12.6528 12.7692 12.8859 12.5663 13.1247 12.5894C13.7568 12.5851 14.3897 12.5809 15.0217 12.5911C15.2856 12.5851 15.4671 12.8497 15.4345 13.0972C15.432 18.6664 15.4413 24.2358 15.4303 29.805C15.432 31.2893 14.8222 32.9043 13.4493 33.6306C11.7579 34.5067 9.66742 34.3209 7.99649 33.4808C6.54997 32.7588 5.16954 31.9067 3.74869 31.1333C2.76132 30.6222 2.07862 29.5542 2.08557 28.4349V11.5599C2.07522 10.462 2.72444 9.40428 3.68699 8.88612C8.63366 6.09449 13.5795 3.30072 18.5253 0.507811Z" fill="#8CC84B"/>
<path d="M22.8404 12.1972C24.9978 12.0583 27.3074 12.1149 29.2488 13.1777C30.7519 13.9922 31.5853 15.7016 31.6118 17.3715C31.5698 17.5967 31.3343 17.721 31.1193 17.7055C30.4934 17.7047 29.8673 17.714 29.2413 17.7013C28.9758 17.7115 28.8215 17.4667 28.7881 17.2319C28.6083 16.4329 28.1725 15.6416 27.4205 15.2562C26.266 14.6782 24.9274 14.7072 23.6686 14.7193C22.7496 14.7681 21.7614 14.8477 20.9828 15.3881C20.3851 15.7974 20.2035 16.6238 20.4168 17.2893C20.618 17.7672 21.1696 17.9214 21.6209 18.0635C24.2209 18.7435 26.9761 18.6759 29.5264 19.5708C30.5823 19.9356 31.6152 20.6448 31.9766 21.7503C32.4494 23.232 32.2421 25.0031 31.188 26.1926C30.3331 27.1714 29.088 27.7042 27.8461 27.9936C26.1941 28.3619 24.4796 28.3713 22.8019 28.2077C21.2244 28.0279 19.5827 27.6134 18.3648 26.5385C17.3234 25.6343 16.8147 24.2254 16.8652 22.8655C16.8773 22.6359 17.1059 22.4757 17.3259 22.4946C17.9563 22.4895 18.5866 22.4878 19.217 22.4954C19.4688 22.4774 19.6554 22.695 19.6683 22.9323C19.7846 23.6936 20.0707 24.4926 20.7346 24.9439C22.0157 25.7705 23.6232 25.7139 25.0901 25.737C26.3054 25.6831 27.6697 25.6668 28.6615 24.8635C29.1847 24.4054 29.3397 23.6388 29.1983 22.9794C29.0451 22.4227 28.4627 22.1632 27.9626 21.9936C25.396 21.1817 22.61 21.4763 20.0682 20.5581C19.0363 20.1935 18.0384 19.504 17.642 18.4438C17.0888 16.9434 17.3423 15.0875 18.5069 13.9382C19.6425 12.7949 21.2818 12.3546 22.8404 12.197V12.1972Z" fill="#8CC84B"/>
</g>
</g>
<defs>
<clipPath id="clip0">
<rect width="40" height="40" fill="white"/>
</clipPath>
<clipPath id="clip1">
<rect width="36.32" height="40" fill="white" transform="translate(2)"/>
</clipPath>
</defs>
</svg>
