<svg width="40" height="40" viewBox="0 0 40 40" fill="none" xmlns="http://www.w3.org/2000/svg">
<path d="M19.8286 0.0112457C9.69952 0.0112457 10.332 4.42143 10.332 4.42143L10.3432 8.99052H20.0092V10.3623H6.50404C6.50404 10.3623 0.0224609 9.62424 0.0224609 19.8854C0.0224609 30.1469 5.67974 29.7829 5.67974 29.7829H9.05599V25.0212C9.05599 25.0212 8.87397 19.3412 14.623 19.3412H24.2099C24.2099 19.3412 29.5961 19.4286 29.5961 14.1147V5.32857C29.5961 5.32857 30.4141 0.0112457 19.8286 0.0112457ZM14.4988 3.08387C14.7272 3.08366 14.9534 3.12868 15.1644 3.21634C15.3755 3.30401 15.5673 3.4326 15.7288 3.59476C15.8903 3.75692 16.0184 3.94947 16.1057 4.16138C16.193 4.3733 16.2379 4.60042 16.2377 4.82975C16.2379 5.05908 16.193 5.2862 16.1057 5.49811C16.0184 5.71002 15.8903 5.90257 15.7288 6.06473C15.5673 6.22689 15.3755 6.35548 15.1644 6.44315C14.9534 6.53081 14.7272 6.57583 14.4988 6.57562C14.2703 6.57583 14.0441 6.53081 13.8331 6.44315C13.622 6.35548 13.4302 6.22689 13.2687 6.06473C13.1072 5.90257 12.9791 5.71002 12.8918 5.49811C12.8045 5.2862 12.7597 5.05908 12.7599 4.82975C12.7597 4.60042 12.8045 4.3733 12.8918 4.16138C12.9791 3.94947 13.1072 3.75692 13.2687 3.59476C13.4302 3.4326 13.622 3.30401 13.8331 3.21634C14.0441 3.12868 14.2703 3.08366 14.4988 3.08387Z" fill="url(#paint0_linear)"/>
<path d="M20.1163 39.863C30.2454 39.863 29.6129 35.4528 29.6129 35.4528L29.6017 30.8838H19.9355V29.512H33.4407C33.4407 29.512 39.9223 30.2501 39.9223 19.9886C39.9223 9.72721 34.265 10.0911 34.265 10.0911H30.8887V14.8527C30.8887 14.8527 31.0707 20.5327 25.3218 20.5327H15.7348C15.7348 20.5327 10.3486 20.4454 10.3486 25.7594V34.5458C10.3486 34.5458 9.53075 39.863 20.1162 39.863H20.1163ZM25.4461 36.7906C25.2177 36.7908 24.9915 36.7458 24.7804 36.6582C24.5694 36.5705 24.3776 36.4419 24.2161 36.2797C24.0546 36.1176 23.9265 35.925 23.8392 35.7131C23.7519 35.5012 23.707 35.2741 23.7072 35.0448C23.707 34.8154 23.7518 34.5883 23.8391 34.3763C23.9264 34.1644 24.0545 33.9718 24.216 33.8097C24.3775 33.6475 24.5693 33.5189 24.7804 33.4312C24.9915 33.3435 25.2177 33.2985 25.4461 33.2987C25.6745 33.2985 25.9007 33.3435 26.1118 33.4312C26.3229 33.5189 26.5147 33.6474 26.6762 33.8096C26.8377 33.9718 26.9658 34.1643 27.0531 34.3762C27.1404 34.5881 27.1852 34.8153 27.185 35.0446C27.1852 35.2739 27.1404 35.501 27.0531 35.713C26.9658 35.9249 26.8377 36.1174 26.6762 36.2796C26.5147 36.4417 26.3229 36.5703 26.1118 36.658C25.9007 36.7457 25.6745 36.7907 25.4461 36.7905V36.7906Z" fill="url(#paint1_linear)"/>
<defs>
<linearGradient id="paint0_linear" x1="3.85681" y1="3.59565" x2="23.7083" y2="23.1705" gradientUnits="userSpaceOnUse">
<stop stop-color="#387EB8"/>
<stop offset="1" stop-color="#366994"/>
</linearGradient>
<linearGradient id="paint1_linear" x1="15.9936" y1="16.2166" x2="37.308" y2="36.2851" gradientUnits="userSpaceOnUse">
<stop stop-color="#FFE052"/>
<stop offset="1" stop-color="#FFC331"/>
</linearGradient>
</defs>
</svg>
